<svg width="48" height="48" viewBox="0 0 48 48" fill="none" xmlns="http://www.w3.org/2000/svg">
<rect width="48" height="48" rx="24" transform="matrix(-1 0 0 1 48 0)" fill="white"/>
<path d="M21.17 23.2899L25.41 19.0499C25.503 18.9562 25.6136 18.8818 25.7354 18.8311C25.8573 18.7803 25.988 18.7542 26.12 18.7542C26.252 18.7542 26.3827 18.7803 26.5046 18.8311C26.6264 18.8818 26.737 18.9562 26.83 19.0499C27.0162 19.2373 27.1208 19.4908 27.1208 19.7549C27.1208 20.0191 27.0162 20.2726 26.83 20.4599L23.29 23.9999L26.83 27.5399C27.0162 27.7273 27.1208 27.9808 27.1208 28.2449C27.1208 28.5091 27.0162 28.7626 26.83 28.9499C26.7366 29.0426 26.6257 29.116 26.5039 29.1657C26.3821 29.2155 26.2516 29.2407 26.12 29.2399C25.9884 29.2407 25.8579 29.2155 25.7361 29.1657C25.6143 29.116 25.5034 29.0426 25.41 28.9499L21.17 24.7099C21.0763 24.617 21.0019 24.5064 20.9511 24.3845C20.9003 24.2627 20.8742 24.132 20.8742 23.9999C20.8742 23.8679 20.9003 23.7372 20.9511 23.6154C21.0019 23.4935 21.0763 23.3829 21.17 23.2899Z" fill="black"/>
<rect x="-0.5" y="0.5" width="47" height="47" rx="23.5" transform="matrix(-1 0 0 1 47 0)" stroke="black" stroke-opacity="0.1"/>
</svg>
