<svg width="48" height="48" viewBox="0 0 48 48" fill="none" xmlns="http://www.w3.org/2000/svg">
<rect width="48" height="48" rx="24" fill="white"/>
<path d="M26.83 23.29L22.59 19.05C22.497 18.9563 22.3864 18.8819 22.2646 18.8311C22.1427 18.7803 22.012 18.7542 21.88 18.7542C21.748 18.7542 21.6173 18.7803 21.4954 18.8311C21.3736 18.8819 21.263 18.9563 21.17 19.05C20.9838 19.2374 20.8792 19.4908 20.8792 19.755C20.8792 20.0192 20.9838 20.2726 21.17 20.46L24.71 24L21.17 27.54C20.9838 27.7274 20.8792 27.9808 20.8792 28.245C20.8792 28.5092 20.9838 28.7626 21.17 28.95C21.2634 29.0427 21.3743 29.116 21.4961 29.1658C21.6179 29.2155 21.7484 29.2408 21.88 29.24C22.0116 29.2408 22.1421 29.2155 22.2639 29.1658C22.3857 29.116 22.4966 29.0427 22.59 28.95L26.83 24.71C26.9237 24.617 26.9981 24.5064 27.0489 24.3846C27.0997 24.2627 27.1258 24.132 27.1258 24C27.1258 23.868 27.0997 23.7373 27.0489 23.6154C26.9981 23.4936 26.9237 23.383 26.83 23.29Z" fill="#FF3E9A"/>
<rect x="0.5" y="0.5" width="47" height="47" rx="23.5" stroke="black" stroke-opacity="0.1"/>
</svg>
